<mxfile host="app.diagrams.net" modified="2022-01-07T08:27:29.810Z" agent="5.0 (Macintosh; Intel Mac OS X 10_15_7) AppleWebKit/537.36 (KHTML, like Gecko) Chrome/92.0.4515.159 Safari/537.36" etag="QVRRZHCUz3KL97-fpCdf" version="13.8.5" type="github">
  <diagram id="prtHgNgQTEPvFCAcTncT" name="Page-1">
    <mxGraphModel dx="1186" dy="670" grid="1" gridSize="10" guides="1" tooltips="1" connect="1" arrows="1" fold="1" page="1" pageScale="1" pageWidth="827" pageHeight="1169" math="0" shadow="0">
      <root>
        <mxCell id="0" />
        <mxCell id="1" parent="0" />
        <mxCell id="ZL4VuRLNrD3prT4f6ZqY-1" value="" style="rounded=1;whiteSpace=wrap;html=1;" vertex="1" parent="1">
          <mxGeometry x="160" y="120" width="560" height="60" as="geometry" />
        </mxCell>
        <mxCell id="ZL4VuRLNrD3prT4f6ZqY-3" value="Java进程1" style="shape=ext;double=1;rounded=1;whiteSpace=wrap;html=1;" vertex="1" parent="1">
          <mxGeometry x="255" y="120" width="90" height="60" as="geometry" />
        </mxCell>
        <mxCell id="ZL4VuRLNrD3prT4f6ZqY-4" value="&lt;span&gt;Java进程2&lt;/span&gt;" style="shape=ext;double=1;rounded=1;whiteSpace=wrap;html=1;" vertex="1" parent="1">
          <mxGeometry x="395" y="120" width="90" height="60" as="geometry" />
        </mxCell>
        <mxCell id="ZL4VuRLNrD3prT4f6ZqY-5" value="&lt;span&gt;Java进程3&lt;/span&gt;" style="shape=ext;double=1;rounded=1;whiteSpace=wrap;html=1;" vertex="1" parent="1">
          <mxGeometry x="535" y="120" width="90" height="60" as="geometry" />
        </mxCell>
        <mxCell id="ZL4VuRLNrD3prT4f6ZqY-6" value="" style="rounded=1;whiteSpace=wrap;html=1;" vertex="1" parent="1">
          <mxGeometry x="160" y="230" width="560" height="60" as="geometry" />
        </mxCell>
        <mxCell id="ZL4VuRLNrD3prT4f6ZqY-7" value="栈" style="shape=ext;double=1;rounded=1;whiteSpace=wrap;html=1;" vertex="1" parent="1">
          <mxGeometry x="180" y="230" width="60" height="60" as="geometry" />
        </mxCell>
        <mxCell id="ZL4VuRLNrD3prT4f6ZqY-8" value="&lt;br&gt;堆" style="shape=ext;double=1;rounded=1;whiteSpace=wrap;html=1;align=center;" vertex="1" parent="1">
          <mxGeometry x="270" y="230" width="160" height="60" as="geometry" />
        </mxCell>
        <mxCell id="ZL4VuRLNrD3prT4f6ZqY-9" value="非堆" style="shape=ext;double=1;rounded=1;whiteSpace=wrap;html=1;" vertex="1" parent="1">
          <mxGeometry x="450" y="230" width="160" height="60" as="geometry" />
        </mxCell>
        <mxCell id="ZL4VuRLNrD3prT4f6ZqY-10" value="JVM自身" style="shape=ext;double=1;rounded=1;whiteSpace=wrap;html=1;" vertex="1" parent="1">
          <mxGeometry x="640" y="230" width="60" height="60" as="geometry" />
        </mxCell>
      </root>
    </mxGraphModel>
  </diagram>
</mxfile>
